<svg width="25" height="25" viewBox="0 0 25 25" fill="none" xmlns="http://www.w3.org/2000/svg">
    <g clip-path="url(#clip0_253_2)">
        <path
            d="M23.329 19.6788H22.579V6.92883C22.579 6.72992 22.5 6.53916 22.3593 6.3985C22.2187 6.25785 22.0279 6.17883 21.829 6.17883H18.079V3.92883C18.079 3.72992 18 3.53916 17.8593 3.3985C17.7187 3.25785 17.5279 3.17883 17.329 3.17883H8.32898C8.13007 3.17883 7.9393 3.25785 7.79865 3.3985C7.658 3.53916 7.57898 3.72992 7.57898 3.92883V9.17883H3.82898C3.63007 9.17883 3.4393 9.25785 3.29865 9.3985C3.158 9.53916 3.07898 9.72992 3.07898 9.92883V19.6788H2.32898C2.13007 19.6788 1.9393 19.7579 1.79865 19.8985C1.658 20.0392 1.57898 20.2299 1.57898 20.4288C1.57898 20.6277 1.658 20.8185 1.79865 20.9592C1.9393 21.0998 2.13007 21.1788 2.32898 21.1788H23.329C23.5279 21.1788 23.7187 21.0998 23.8593 20.9592C24 20.8185 24.079 20.6277 24.079 20.4288C24.079 20.2299 24 20.0392 23.8593 19.8985C23.7187 19.7579 23.5279 19.6788 23.329 19.6788ZM4.57898 10.6788H8.32898C8.52789 10.6788 8.71866 10.5998 8.85931 10.4592C8.99996 10.3185 9.07898 10.1277 9.07898 9.92883V4.67883H16.579V6.92883C16.579 7.12775 16.658 7.31851 16.7986 7.45916C16.9393 7.59982 17.1301 7.67883 17.329 7.67883H21.079V19.6788H15.079V15.9288C15.079 15.7299 15 15.5392 14.8593 15.3985C14.7187 15.2579 14.5279 15.1788 14.329 15.1788H11.329C11.1301 15.1788 10.9393 15.2579 10.7986 15.3985C10.658 15.5392 10.579 15.7299 10.579 15.9288V19.6788H4.57898V10.6788ZM13.579 19.6788H12.079V16.6788H13.579V19.6788ZM11.329 6.92883C11.329 6.72992 11.408 6.53916 11.5486 6.3985C11.6893 6.25785 11.8801 6.17883 12.079 6.17883H13.579C13.7779 6.17883 13.9687 6.25785 14.1093 6.3985C14.25 6.53916 14.329 6.72992 14.329 6.92883C14.329 7.12775 14.25 7.31851 14.1093 7.45916C13.9687 7.59982 13.7779 7.67883 13.579 7.67883H12.079C11.8801 7.67883 11.6893 7.59982 11.5486 7.45916C11.408 7.31851 11.329 7.12775 11.329 6.92883ZM11.329 9.92883C11.329 9.72992 11.408 9.53916 11.5486 9.3985C11.6893 9.25785 11.8801 9.17883 12.079 9.17883H13.579C13.7779 9.17883 13.9687 9.25785 14.1093 9.3985C14.25 9.53916 14.329 9.72992 14.329 9.92883C14.329 10.1277 14.25 10.3185 14.1093 10.4592C13.9687 10.5998 13.7779 10.6788 13.579 10.6788H12.079C11.8801 10.6788 11.6893 10.5998 11.5486 10.4592C11.408 10.3185 11.329 10.1277 11.329 9.92883ZM16.579 9.92883C16.579 9.72992 16.658 9.53916 16.7986 9.3985C16.9393 9.25785 17.1301 9.17883 17.329 9.17883H18.829C19.0279 9.17883 19.2187 9.25785 19.3593 9.3985C19.5 9.53916 19.579 9.72992 19.579 9.92883C19.579 10.1277 19.5 10.3185 19.3593 10.4592C19.2187 10.5998 19.0279 10.6788 18.829 10.6788H17.329C17.1301 10.6788 16.9393 10.5998 16.7986 10.4592C16.658 10.3185 16.579 10.1277 16.579 9.92883ZM9.07898 12.9288C9.07898 13.1277 8.99996 13.3185 8.85931 13.4592C8.71866 13.5998 8.52789 13.6788 8.32898 13.6788H6.82898C6.63007 13.6788 6.4393 13.5998 6.29865 13.4592C6.158 13.3185 6.07898 13.1277 6.07898 12.9288C6.07898 12.7299 6.158 12.5392 6.29865 12.3985C6.4393 12.2579 6.63007 12.1788 6.82898 12.1788H8.32898C8.52789 12.1788 8.71866 12.2579 8.85931 12.3985C8.99996 12.5392 9.07898 12.7299 9.07898 12.9288ZM9.07898 15.9288C9.07898 16.1277 8.99996 16.3185 8.85931 16.4592C8.71866 16.5998 8.52789 16.6788 8.32898 16.6788H6.82898C6.63007 16.6788 6.4393 16.5998 6.29865 16.4592C6.158 16.3185 6.07898 16.1277 6.07898 15.9288C6.07898 15.7299 6.158 15.5392 6.29865 15.3985C6.4393 15.2579 6.63007 15.1788 6.82898 15.1788H8.32898C8.52789 15.1788 8.71866 15.2579 8.85931 15.3985C8.99996 15.5392 9.07898 15.7299 9.07898 15.9288ZM11.329 12.9288C11.329 12.7299 11.408 12.5392 11.5486 12.3985C11.6893 12.2579 11.8801 12.1788 12.079 12.1788H13.579C13.7779 12.1788 13.9687 12.2579 14.1093 12.3985C14.25 12.5392 14.329 12.7299 14.329 12.9288C14.329 13.1277 14.25 13.3185 14.1093 13.4592C13.9687 13.5998 13.7779 13.6788 13.579 13.6788H12.079C11.8801 13.6788 11.6893 13.5998 11.5486 13.4592C11.408 13.3185 11.329 13.1277 11.329 12.9288ZM16.579 12.9288C16.579 12.7299 16.658 12.5392 16.7986 12.3985C16.9393 12.2579 17.1301 12.1788 17.329 12.1788H18.829C19.0279 12.1788 19.2187 12.2579 19.3593 12.3985C19.5 12.5392 19.579 12.7299 19.579 12.9288C19.579 13.1277 19.5 13.3185 19.3593 13.4592C19.2187 13.5998 19.0279 13.6788 18.829 13.6788H17.329C17.1301 13.6788 16.9393 13.5998 16.7986 13.4592C16.658 13.3185 16.579 13.1277 16.579 12.9288ZM16.579 15.9288C16.579 15.7299 16.658 15.5392 16.7986 15.3985C16.9393 15.2579 17.1301 15.1788 17.329 15.1788H18.829C19.0279 15.1788 19.2187 15.2579 19.3593 15.3985C19.5 15.5392 19.579 15.7299 19.579 15.9288C19.579 16.1277 19.5 16.3185 19.3593 16.4592C19.2187 16.5998 19.0279 16.6788 18.829 16.6788H17.329C17.1301 16.6788 16.9393 16.5998 16.7986 16.4592C16.658 16.3185 16.579 16.1277 16.579 15.9288Z"
            fill="#AF4F4F" />
    </g>
    <defs>
        <clipPath id="clip0_253_2">
            <rect width="24" height="24" fill="white" transform="translate(0.828979 0.178833)" />
        </clipPath>
    </defs>
</svg>